# AST/ASF file generated using VICON BodyLanguage
# -----------------------------------------------
:version 1.10
:name VICON
:units
  mass 1.0
  length 0.45
  angle deg
:documentation
   .ast/.asf automatically generated from VICON data using
   VICON BodyBuilder and BodyLanguage model FoxedUp or BRILLIANT.MOD
:root
   order TX TY TZ RX RY RZ
   axis XYZ
   position 0 0 0  
   orientation 0 0 0 
:bonedata
  begin
     id 1 
     name lhipjoint
     direction 0.643272 -0.706573 0.294883 
     length 2.58915 
     axis 0 0 0  XYZ
  end
  begin
     id 2 
     name lfemur
     direction 0.34202 -0.939693 0  
     length 7.06802  
     axis 0 0 20  XYZ
    dof rx ry rz
    limits (-160.0 20.0)
           (-70.0 70.0)
           (-60.0 70.0)
  end
  begin
     id 3 
     name ltibia
     direction 0.34202 -0.939693 0   
     length 7.94147   
     axis 0 0 20   XYZ
    dof rx
    limits (-10.0 170.0)
  end
  begin
     id 4 
     name lfoot
     direction 0.0435058 -0.119531 0.991877   
     length 1.8399   
     axis -90 7.62852e-016 20   XYZ
    dof rx rz
    limits (-45.0 90.0)
           (-70.0 20.0)
  end
  begin
     id 5 
     name ltoes
     direction 1.53505e-011 -4.22157e-011 1   
     length 0.934412   
     axis -90 7.62852e-016 20   XYZ
    dof rx
    limits (-90.0 20.0)
  end
  begin
     id 6 
     name rhipjoint
     direction -0.636801 -0.711547 0.296959   
     length 2.57105  
     axis 0 0 0  XYZ 
  end
  begin
     id 7 
     name rfemur
     direction -0.34202 -0.939693 0   
     length 7.03285   
     axis 0 0 -20   XYZ
    dof rx ry rz
    limits (-160.0 20.0)
           (-70.0 70.0)
           (-70.0 60.0)
  end
  begin
     id 8 
     name rtibia
     direction -0.34202 -0.939693 0   
     length 7.99111   
     axis 0 0 -20   XYZ
    dof rx
    limits (-10.0 170.0)
 end
 begin
     id 9 
     name rfoot
     direction -0.0783088 -0.215152 0.973436   
     length 1.98785  
     axis -90 -7.62852e-016 -20   XYZ
    dof rx rz
    limits (-45.0 90.0)
           (-20.0 70.0)
  end
  begin
     id 10 
     name rtoes
     direction -1.53606e-011 -4.21943e-011 1   
     length 1.001   
     axis -90 -7.62852e-016 -20   XYZ
    dof rx
    limits (-90.0 20.0)
  end
  begin
     id 11 
     name lowerback
     direction 0.00141527 0.998403 -0.0564763   
     length 2.30486   
     axis 0 0 0   XYZ
    dof rx ry rz
    limits (-20.0 45.0)
           (-30.0 30.0)
           (-30.0 30.0)
  end
  begin
     id 12 
     name upperback
     direction 0.0125137 0.999915 0.00361315   
     length 2.30697   
     axis 0 0 0   XYZ
    dof rx ry rz
    limits (-20.0 45.0)
           (-30.0 30.0)
           (-30.0 30.0)
  end
  begin
     id 13 
     name thorax
     direction 0.0136417 0.999471 0.0295116   
     length 2.31005   
     axis 0 0 0   XYZ
    dof rx ry rz
    limits (-20.0 45.0)
           (-30.0 30.0)
           (-30.0 30.0)
  end
  begin
     id 14 
     name lowerneck
     direction 0.0766806 0.997047 0.00422047   
     length 1.68825   
     axis 0 0 0   XYZ
    dof rx ry rz
    limits (-20.0 45.0)
           (-30.0 30.0)
           (-30.0 30.0)
  end
  begin
     id 15 
     name upperneck
     direction -0.143512 0.985106 -0.0947088   
     length 1.69772   
     axis 0 0 0   XYZ
    dof rx ry rz
    limits (-20.0 45.0)
           (-30.0 30.0)
           (-30.0 30.0)
  end
  begin
     id 16
     name head
     direction -0.0539128 0.997849 -0.0372864  
     length 1.71187  
     axis 0 0 0   XYZ
    dof rx ry rz
    limits (-20.0 45.0)
           (-30.0 30.0)
           (-30.0 30.0)
  end
  begin
     id 17 
     name lclavicle
     direction 0.978251 0.207416 -0.00165765  
     length 3.35399  
     axis 0 0 0   XYZ
    dof ry rz
    limits (-20.0 10.0)
           (0.0 20.0)
  end
  begin
     id 18 
     name lhumerus
     direction 1 -4.48966e-011 -1.32191e-028   
     length 5.70706   
     axis 180 -30 -90   XYZ
    dof rx ry rz
    limits (-60.0 90.0)
           (-90.0 90.0)
           (-90.0 90.0)
  end
  begin
     id 19
     name lradius
     direction 1 -4.48976e-011 9.36106e-027   
     length 3.33243   
     axis 180 -30 -90   XYZ
    dof rx
    limits (-10.0 170.0)
  end
  begin
     id 20
     name lwrist
     direction 1 -4.48976e-011 1.1555e-026   
     length 1.66621   
     axis -5.7412e-015 90 90   XYZ
    dof ry
    limits (-180.0 0.0)
 end
  begin
     id 21 
     name lhand
     direction 1 -4.48939e-011 2.31113e-026   
     length 0.792687   
     axis -1.47463e-014 90 90   XYZ
    dof rx rz
    limits (-90.0 90.0)
           (-45.0 45.0)
  end
  begin
     id 22 
     name lfingers
     direction 1 -4.48866e-011 4.62274e-026   
     length 0.639085   
     axis -2.94925e-014 90 90   XYZ
    dof rx
    limits (0.0 90.0)
  end
  begin
     id 23
     name lthumb
     direction 0.707107 -6.34847e-011 0.707107   
     length 0.917601   
     axis -90 45 -6.68868e-015   XYZ
    dof rx rz
    limits (-45.0 45.0)
           (-45.0 45.0)
  end
  begin
     id 24 
     name rclavicle
     direction -0.981813 0.185514 0.0403428   
     length 3.47271  
     axis 0 0 0   XYZ 
    dof ry rz
    limits (-10.0 20.0)
           (-20.0 0.0)
  end
  begin
     id 25 
     name rhumerus
     direction -1 -4.48972e-011 -6.58544e-029  
     length 5.88176   
     axis 180 30 90   XYZ
    dof rx ry rz
    limits (-90.0 60.0)
           (-90.0 90.0)
           (-90.0 90.0)
  end
  begin
     id 26 
     name rradius
     direction -1 -4.48964e-011 8.36306e-027   
     length 3.28156   
     axis 180 30 90   XYZ
    dof rx
    limits (-10.0 170.0)
  end
  begin
     id 27 
     name rwrist
     direction -1 -4.48903e-011 1.15562e-026   
     length 1.64078   
     axis -5.7412e-015 -90 -90   XYZ
    dof ry
    limits (-180.0 0.0)
  end
  begin
     id 28
     name rhand
     direction -1 -4.49055e-011 2.31074e-026   
     length 0.863125   
     axis -1.47463e-014 -90 -90   XYZ
    dof rx rz
    limits (-90.0 90.0)
           (-45.0 45.0)
  end
  begin
     id 29
     name rfingers
     direction -1 -4.48994e-011 4.62188e-026   
     length 0.695873   
     axis -2.94925e-014 -90 -90   XYZ
    dof rx
    limits (0.0 90.0)
  end
  begin
     id 30
     name rthumb
     direction -0.707107 -6.35058e-011 0.707107   
     length 0.999139   
     axis -90 -45 6.68868e-015   XYZ
    dof rx rz
    limits (-45.0 45.0)
           (-45.0 45.0)
  end
:hierarchy
  begin
    root lhipjoint rhipjoint lowerback
    lhipjoint lfemur
    lfemur ltibia
    ltibia lfoot
    lfoot ltoes
    rhipjoint rfemur
    rfemur rtibia
    rtibia rfoot
    rfoot rtoes
    lowerback upperback
    upperback thorax
    thorax lowerneck lclavicle rclavicle
    lowerneck upperneck
    upperneck head
    lclavicle lhumerus
    lhumerus lradius
    lradius lwrist
    lwrist lhand lthumb
    lhand lfingers
    rclavicle rhumerus
    rhumerus rradius
    rradius rwrist
    rwrist rhand rthumb
    rhand rfingers
  end

#!OML:ASF \\Waltz\H\Terrain\Patient Classification 1\Animal2\Wednesday\Animal2.ASF
:FULLY-SPECIFIED
:DEGREES
137
root 2.44151 17.6196 -24.4949 2.90949 -0.71761 0.603289
lowerback 4.58416 -2.70997 3.7634
upperback -2.87605 -3.38562 -0.46436
thorax -5.81418 -1.83193 -2.26065
lowerneck 12.3978 7.55017 14.4906
upperneck -17.5048 9.84143 -19.822
head -5.38742 5.62543 -9.61697
rclavicle -6.69345e-014 1.98785e-015
rhumerus 7.12298 34.4308 -72.3721
rradius 92.7183
rwrist -19.4664
rhand -14.9424 16.8053
rfingers 7.12502
rthumb 11.2203 -12.8746
lclavicle -6.69345e-014 1.98785e-015
lhumerus 23.5917 19.0757 21.7636
lradius 73.0529
lwrist 1.57081
lhand -52.239 21.0623
lfingers 7.12502
lthumb -24.7366 49.4829
rfemur -21.0068 -1.3996 21.3545
rtibia 46.3898
rfoot -24.1265 -3.56572
rtoes 9.60003
lfemur -10.8524 1.2676 -22.5971
ltibia 26.8661
lfoot -19.2322 -1.5292
ltoes -28.77
138
root 2.44305 17.6178 -24.4667 2.89544 -0.836229 0.534118
lowerback 4.57678 -2.74997 3.81816
upperback -2.89365 -3.42996 -0.364139
thorax -5.82881 -1.85415 -2.1821
lowerneck 12.1349 7.68717 14.4861
upperneck -17.3242 9.98529 -20.0365
head -5.24393 5.70578 -9.65745
rclavicle 8.54774e-015 -1.35174e-014
rhumerus 7.38507 34.4841 -72.0174
rradius 92.5478
rwrist -19.7487
rhand -15.0084 16.571
rfingers 7.12502
rthumb 11.1567 -13.1124
lclavicle 8.54774e-015 -1.35174e-014
lhumerus 23.7101 19.0166 22.102
lradius 73.097
lwrist 1.5893
lhand -52.3546 20.4574
lfingers 7.12502
lthumb -24.8474 48.8627
rfemur -21.0527 -0.443046 21.4222
rtibia 45.6286
rfoot -24.4189 -2.93189
rtoes 10.8473
lfemur -10.7121 1.3614 -22.5251
ltibia 26.7751
lfoot -19.1975 -1.41047
ltoes -29.8505
139
root 2.44499 17.6078 -24.4193 2.73753 -0.204698 0.679421
lowerback 3.99672 -3.02779 4.00176
upperback -2.58159 -3.82928 -0.592472
thorax -5.22739 -2.05046 -2.52073
lowerneck 11.9156 7.77714 14.7253
upperneck -17.4382 10.0999 -20.1796
head -5.19228 5.7514 -9.73747
rclavicle 1.00169e-014 3.08116e-015
rhumerus 7.73822 34.2022 -72.1337
rradius 92.5339
rwrist -20.0036
rhand -14.8042 16.2327
rfingers 7.12502
rthumb 11.3536 -13.44
lclavicle 1.00169e-014 3.08116e-015
lhumerus 24.2631 19.2407 22.4372
lradius 73.1708
lwrist 1.39812
lhand -51.8963 19.8784
lfingers 7.12502
lthumb -24.4081 48.3437
rfemur -20.7236 -0.209897 21.2889
rtibia 44.8537
rfoot -24.4975 -2.34282
rtoes 11.961
lfemur -10.3336 1.00634 -22.6313
ltibia 26.6515
lfoot -19.2649 -1.85227
ltoes -29.6671
140
root 2.4408 17.5917 -24.3861 2.78611 -0.167492 1.264
lowerback 2.56299 -3.38579 4.36448
upperback -1.68819 -4.3954 -1.48441
thorax -3.62855 -2.31579 -3.71148
lowerneck 11.2648 8.23661 14.8526
upperneck -18.2013 10.6631 -19.8336
head -5.21567 5.96346 -9.64201
rclavicle 2.90195e-014 -7.70291e-015
rhumerus 9.34365 33.8947 -72.8344
rradius 92.4782
rwrist -20.3371
rhand -14.7581 16.7436
rfingers 7.12502
rthumb 11.398 -12.9266
lclavicle 2.90195e-014 -7.70291e-015
lhumerus 24.9216 20.3658 21.4858
lradius 73.1423
lwrist 1.10394
lhand -51.6593 20.2051
lfingers 7.12502
lthumb -24.1808 48.7008
rfemur -20.7997 0.30347 20.6408
rtibia 44.1497
rfoot -24.5055 -1.61393
rtoes 11.699
lfemur -10.1755 1.06664 -23.2504
ltibia 26.5262
lfoot -19.3064 -2.19682
ltoes -29.2317
141
root 2.43475 17.5795 -24.3604 2.78804 0.0370056 1.85876
lowerback 2.13365 -3.60588 4.09781
upperback -1.43977 -4.73061 -1.89429
thorax -3.17555 -2.46951 -4.00032
lowerneck 10.841 8.41937 14.8887
upperneck -18.2955 10.8706 -19.772
head -5.13166 6.04187 -9.59929
rclavicle 8.5788e-015 1.85864e-014
rhumerus 9.86653 33.8046 -73.0651
rradius 92.4333
rwrist -20.5266
rhand -15.4196 16.7614
rfingers 7.12502
rthumb 10.76 -12.943
lclavicle 8.5788e-015 1.85864e-014
lhumerus 25.2452 20.4564 21.3014
lradius 73.114
lwrist 0.941507
lhand -51.928 20.8341
lfingers 7.12502
lthumb -24.4384 49.2953
rfemur -20.8054 0.650371 19.9961
rtibia 43.4712
rfoot -24.8066 -1.49963
rtoes 7.67242
lfemur -10.0182 0.997995 -23.8585
ltibia 26.3897
lfoot -19.2366 -2.71529
ltoes -28.0182
142
root 2.42855 17.5715 -24.3288 2.7218 0.14334 2.08931
lowerback 2.10737 -3.65337 3.87298
upperback -1.46359 -4.80424 -1.95654
thorax -3.17925 -2.50295 -3.93541
lowerneck 10.6649 8.42695 14.84
upperneck -18.1901 10.8552 -19.7952
head -5.07272 6.03316 -9.5785
rclavicle 2.59398e-014 3.67752e-015
rhumerus 9.87577 33.7021 -73.0404
rradius 92.2241
rwrist -20.5149
rhand -16.2496 15.5303
rfingers 7.12502
rthumb 9.95939 -14.2141
lclavicle 2.59398e-014 3.67752e-015
lhumerus 25.5673 20.1619 21.7463
lradius 73.08
lwrist 0.73284
lhand -51.9587 20.5224
lfingers 7.12502
lthumb -24.4679 48.9797
rfemur -20.7061 1.22088 19.7248
rtibia 42.788
rfoot -24.8057 -1.34606
rtoes 8.08343
lfemur -9.77395 1.02236 -24.07
ltibia 26.2703
lfoot -19.2164 -3.00785
ltoes -27.5867
143
root 2.42087 17.5684 -24.2924 2.60098 0.135148 2.11955
lowerback 2.51445 -3.56528 3.59411
upperback -1.79017 -4.67747 -1.78005
thorax -3.6961 -2.4455 -3.56714
lowerneck 10.7079 8.32134 14.8077
upperneck -17.8219 10.7213 -19.929
head -4.98689 5.98328 -9.59708
rclavicle 7.51002e-014 2.51463e-014
rhumerus 9.23369 33.6591 -72.9374
rradius 92.0823
rwrist -20.4517
rhand -16.8828 16.9852
rfingers 7.12502
rthumb 9.34839 -12.7875
lclavicle 7.51002e-014 2.51463e-014
lhumerus 25.6479 19.4267 22.3059
lradius 73.0558
lwrist 0.529604
lhand -51.7195 19.8802
lfingers 7.12502
lthumb -24.2386 48.3682
rfemur -20.5218 1.93373 19.6666
rtibia 42.0528
rfoot -24.2334 -0.922401
rtoes 13.9548
lfemur -9.45664 1.0937 -24.0679
ltibia 26.1814
lfoot -19.2929 -2.93666
ltoes -28.3682
144
root 2.41088 17.5653 -24.2569 2.52077 0.201163 2.23536
lowerback 3.72129 -3.45567 2.82077
upperback -2.72116 -4.51346 -1.2442
thorax -5.22761 -2.36441 -2.48622
lowerneck 10.7433 8.19005 14.5825
upperneck -16.6604 10.5714 -20.2268
head -4.66748 5.95026 -9.58473
rclavicle 3.21721e-014 9.64106e-015
rhumerus 7.62688 34.1294 -72.6597
rradius 92.3025
rwrist -20.6922
rhand -17.2325 16.6389
rfingers 7.12502
rthumb 9.01101 -13.1487
lclavicle 3.21721e-014 9.64106e-015
lhumerus 25.0593 17.9981 23.2166
lradius 73.1165
lwrist 0.369238
lhand -51.9136 20.0908
lfingers 7.12502
lthumb -24.4247 48.5538
rfemur -20.2912 2.28063 19.5652
rtibia 41.3077
rfoot -23.6933 -1.02149
rtoes 17.3613
lfemur -9.21075 1.21845 -24.1335
ltibia 26.1312
lfoot -19.299 -3.24879
ltoes -27.5509
145
root 2.40017 17.5595 -24.2242 2.55081 0.323706 2.41862
lowerback 3.85475 -3.49926 2.33939
upperback -2.90808 -4.58738 -1.02859
thorax -5.44598 -2.38262 -1.97394
lowerneck 10.2377 8.29511 14.3695
upperneck -16.0831 10.659 -20.3781
head -4.39304 5.99681 -9.52403
rclavicle 5.74954e-014 1.36167e-014
rhumerus 7.51146 34.2546 -72.3265
rradius 92.2519
rwrist -21.0477
rhand -16.9657 17.2376
rfingers 7.12502
rthumb 9.26844 -12.5387
lclavicle 5.74954e-014 1.36167e-014
lhumerus 24.9251 17.628 23.7197
lradius 73.1756
lwrist 0.355577
lhand -52.2871 20.0751
lfingers 7.12502
lthumb -24.7827 48.4894
rfemur -20.1846 2.33075 19.4167
rtibia 40.6507
rfoot -23.5305 -1.4462
rtoes 19.5687
lfemur -9.11121 1.4653 -24.2584
ltibia 26.0961
lfoot -19.3306 -3.65437
ltoes -27.1505
146
root 2.38822 17.5487 -24.1939 2.56887 0.43104 2.659
lowerback 3.65419 -3.58458 2.22411
upperback -2.88949 -4.7219 -1.21927
thorax -5.32697 -2.44862 -2.10838
lowerneck 10.077 8.36184 14.5676
upperneck -16.0431 10.7632 -20.4354
head -4.31655 6.03483 -9.55941
rclavicle -7.19787e-014 -4.96962e-016
rhumerus 7.55726 34.0276 -72.5897
rradius 91.9221
rwrist -20.8269
rhand -16.505 17.9494
rfingers 7.12502
rthumb 9.71299 -11.8066
lclavicle -7.19787e-014 -4.96962e-016
lhumerus 25.1022 17.3654 23.6592
lradius 73.2445
lwrist 0.273934
lhand -52.2909 19.4345
lfingers 7.12502
lthumb -24.7863 47.8484
rfemur -20.0508 2.36341 19.2223
rtibia 40.1659
rfoot -23.4327 -1.80471
rtoes 22.1103
lfemur -8.97668 1.56413 -24.4615
ltibia 26.015
lfoot -19.4242 -3.86008
ltoes -26.9897
147
root 2.37315 17.5363 -24.1633 2.5306 0.485838 2.88651
lowerback 3.59371 -3.62174 1.99139
upperback -2.9984 -4.79377 -1.3523
thorax -5.40292 -2.4805 -2.11031
lowerneck 10.4711 8.31538 14.8021
upperneck -16.209 10.753 -20.5586
head -4.41282 6.04188 -9.67904
rclavicle -9.93923e-016 -9.54166e-015
rhumerus 7.4029 34.1869 -72.7722
rradius 91.8029
rwrist -20.7345
rhand -16.605 16.9705
rfingers 7.12502
rthumb 9.61645 -12.79
lclavicle -9.93923e-016 -9.54166e-015
lhumerus 25.2526 16.9577 23.745
lradius 73.2289
lwrist -0.0485924
lhand -52.1632 19.037
lfingers 7.12502
lthumb -24.664 47.4676
rfemur -19.7905 2.41428 19.1012
rtibia 39.8851
rfoot -23.2875 -2.27412
rtoes 23.2447
lfemur -8.77327 1.63735 -24.6473
ltibia 25.9058
lfoot -19.5154 -4.09743
ltoes -26.0405
